<svg width="20" height="14" viewBox="0 0 20 14" fill="none" xmlns="http://www.w3.org/2000/svg">
<path d="M6.57783 4.02962C6.57783 3.74578 6.33502 3.51568 6.03551 3.51568C5.73599 3.51568 5.49318 3.74578 5.49318 4.02962V5.26308H4.19159C3.89207 5.26308 3.64927 5.49318 3.64927 5.77702C3.64927 6.06086 3.89207 6.29096 4.19159 6.29096H5.49318V7.52442C5.49318 7.80826 5.73599 8.03836 6.03551 8.03836C6.33502 8.03836 6.57783 7.80826 6.57783 7.52442V6.29096H7.87942C8.17894 6.29096 8.42174 6.06086 8.42174 5.77702C8.42174 5.49318 8.17894 5.26308 7.87942 5.26308H6.57783V4.02962Z" fill="currentColor"/>
<path d="M14.3005 4.55159C14.2001 4.61162 14.081 4.64635 13.9535 4.64635C13.5942 4.64635 13.3027 4.37031 13.3027 4.02962C13.3027 3.82806 13.4048 3.64898 13.5624 3.53636C13.6713 3.45887 13.8069 3.41289 13.9535 3.41289C14.3128 3.41289 14.6043 3.68893 14.6043 4.02962C14.6043 4.1027 14.5907 4.17276 14.5661 4.23781C14.517 4.3685 14.4221 4.47872 14.3005 4.55159Z" fill="currentColor"/>
<path d="M14.6043 7.52442C14.6043 7.7557 14.47 7.95706 14.2717 8.06266C14.1776 8.11264 14.0691 8.14115 13.9535 8.14115C13.5942 8.14115 13.3027 7.86511 13.3027 7.52442C13.3027 7.18374 13.5942 6.90769 13.9535 6.90769C14.3128 6.90769 14.6043 7.18374 14.6043 7.52442Z" fill="currentColor"/>
<path d="M12.1096 5.16029C12.4689 5.16029 12.7604 5.43634 12.7604 5.77702C12.7604 6.11771 12.4689 6.39375 12.1096 6.39375C11.7503 6.39375 11.4588 6.11771 11.4588 5.77702C11.4588 5.43634 11.7503 5.16029 12.1096 5.16029Z" fill="currentColor"/>
<path d="M15.7974 5.16029C16.1567 5.16029 16.4482 5.43634 16.4482 5.77702C16.4482 6.11771 16.1567 6.39375 15.7974 6.39375C15.4381 6.39375 15.1466 6.11771 15.1466 5.77702C15.1466 5.43634 15.4381 5.16029 15.7974 5.16029Z" fill="currentColor"/>
<path fill-rule="evenodd" clip-rule="evenodd" d="M8.12424 0.538665C7.77567 0.499899 7.50934 0.410679 7.18094 0.300666C7.10415 0.274942 7.02397 0.24808 6.93855 0.220461C6.49594 0.0773555 5.97335 -0.0584647 5.29281 0.0261015C4.66879 0.103645 4.1163 0.4456 3.65303 0.868905C3.18247 1.29887 2.74607 1.86525 2.35367 2.49967C1.56803 3.76984 0.905621 5.39957 0.486543 7.00385C0.0701538 8.59784 -0.124911 10.2385 0.0853154 11.517C0.190374 12.156 0.406605 12.7672 0.810142 13.2307C1.23654 13.7204 1.83479 14 2.56542 14C3.78967 14 4.56631 13.3561 5.17176 12.7615C5.29819 12.6374 5.41679 12.5168 5.53107 12.4006C5.99779 11.9261 6.39225 11.525 6.95187 11.2548C7.67828 10.904 8.4533 10.7267 9.05905 10.639C9.3593 10.5955 9.61146 10.5749 9.78622 10.5652C9.87344 10.5603 9.94092 10.5582 9.98497 10.5573L10 10.557L10.015 10.5573C10.0591 10.5582 10.1266 10.5603 10.2138 10.5652C10.3885 10.5749 10.6407 10.5955 10.941 10.639C11.5467 10.7267 12.3217 10.904 13.0481 11.2548C13.6077 11.525 14.0022 11.9261 14.4689 12.4006L14.4696 12.4013C14.5837 12.5173 14.7021 12.6376 14.8282 12.7615C15.4337 13.3561 16.2103 14 17.4346 14C18.1652 14 18.7635 13.7204 19.1899 13.2307C19.5934 12.7672 19.8096 12.156 19.9147 11.517C20.1249 10.2385 19.9298 8.59784 19.5135 7.00385C19.0944 5.39957 18.432 3.76984 17.6463 2.49967C17.2539 1.86525 16.8175 1.29887 16.347 0.868905C15.8837 0.4456 15.3312 0.103645 14.7072 0.0261015C14.0267 -0.0584647 13.5041 0.0773555 13.0615 0.220461C12.976 0.24808 12.8958 0.274942 12.8191 0.300666C12.4907 0.410679 12.2243 0.499899 11.8758 0.538665C11.5144 0.578851 11.0352 0.603963 10.6342 0.618852C10.4363 0.6262 10.262 0.6309 10.1374 0.63376C10.0456 0.635866 9.95439 0.635866 9.86258 0.63376C9.73797 0.6309 9.56374 0.6262 9.36581 0.618852C8.9648 0.603963 8.48559 0.578851 8.12424 0.538665ZM10.1715 1.96962C10.3015 1.96663 10.4829 1.96174 10.6894 1.95407C11.0972 1.93894 11.6217 1.91234 12.0401 1.8658C12.5606 1.80792 12.9965 1.66038 13.3321 1.54677C13.3975 1.52463 13.4591 1.50378 13.5168 1.48513C13.8785 1.36816 14.1587 1.30564 14.5239 1.35101C14.727 1.37625 15.0133 1.50649 15.3682 1.83083C15.7159 2.14851 16.0772 2.60523 16.4299 3.17539C17.1344 4.31438 17.7515 5.81979 18.1447 7.32495C18.5406 8.8404 18.6905 10.2835 18.5214 11.3113C18.4369 11.8256 18.2825 12.1732 18.1022 12.3803C17.9448 12.5611 17.7461 12.6638 17.4346 12.6638C16.816 12.6638 16.3931 12.374 15.8429 11.8337C15.7552 11.7475 15.6628 11.6528 15.5652 11.5526C15.0917 11.0669 14.4929 10.4527 13.6883 10.0642C12.7832 9.62706 11.8493 9.41881 11.1541 9.31808C10.8038 9.26733 10.5075 9.24293 10.2963 9.2312C10.1966 9.22566 10.1155 9.22292 10.0563 9.22159L10.0563 9.22085L10.0562 9.22042L10.0559 9.22042L10.055 9.22041L10.0527 9.22039L10.0461 9.22037C10.0443 9.22036 10.0424 9.22036 10.0403 9.22036C10.036 9.22036 10.031 9.22037 10.0253 9.2204C10.018 9.22044 10.0096 9.22051 10 9.22062C9.9904 9.22051 9.98195 9.22044 9.97469 9.2204L9.96669 9.22037C9.96167 9.22036 9.9574 9.22036 9.9539 9.22037L9.94735 9.22039L9.94505 9.22041L9.94414 9.22042L9.94376 9.22042C9.94376 9.22042 9.94373 9.22081 9.94372 9.22159C9.88448 9.22292 9.80338 9.22566 9.70368 9.2312C9.49253 9.24293 9.19617 9.26733 8.84594 9.31808C8.1507 9.41881 7.21683 9.62706 6.31166 10.0642C5.50706 10.4527 4.9083 11.0669 4.43484 11.5526C4.33717 11.6528 4.24481 11.7475 4.1571 11.8337C3.60689 12.374 3.18398 12.6638 2.56542 12.6638C2.25388 12.6638 2.05518 12.5611 1.89779 12.3803C1.71753 12.1732 1.56311 11.8256 1.47855 11.3113C1.30955 10.2835 1.4594 8.8404 1.85528 7.32495C2.24846 5.81979 2.86565 4.31438 3.57014 3.17539C3.9228 2.60523 4.28409 2.14851 4.63176 1.83083C4.98672 1.50649 5.27298 1.37625 5.47614 1.35101C5.84126 1.30564 6.12146 1.36816 6.48323 1.48513C6.54091 1.50378 6.60251 1.52463 6.66792 1.54677C7.00355 1.66038 7.4394 1.80792 7.95989 1.8658C8.37831 1.91234 8.90284 1.93894 9.31061 1.95407C9.51708 1.96174 9.69851 1.96663 9.82845 1.96962C9.94314 1.97225 10.0567 1.97225 10.1715 1.96962Z" fill="currentColor"/>
</svg>
