<svg width="489" height="117" viewBox="0 0 489 117" fill="none" xmlns="http://www.w3.org/2000/svg">
<path d="M45.0004 116.927C38.4819 116.927 32.7869 115.789 27.9154 113.513C23.0439 111.236 19.1329 108.07 16.1824 104.015C13.232 99.9601 11.3747 95.2114 10.6108 89.7691C9.85633 84.2913 10.3274 78.3865 12.0239 72.055C13.4727 66.6482 15.6271 61.5794 18.4874 56.8485C21.3942 52.0821 24.7172 47.9737 28.4566 44.5233C32.2425 41.0374 36.1504 38.5475 40.1803 37.0535C39.5886 38.1562 38.7607 39.8636 37.6967 42.1757C36.6698 44.4878 35.9419 46.4441 35.513 48.0448C34.8458 50.5348 34.5554 52.7935 34.6418 54.821C34.7651 56.8485 35.2161 58.4136 35.9948 59.5163C36.9383 55.9948 38.3787 52.9002 40.3157 50.2324C42.2898 47.5646 44.4797 45.128 46.8855 42.9226C49.3378 40.6817 51.762 38.4763 54.1583 36.3065C56.5545 34.1367 58.6925 31.8246 60.5724 29.3702C62.4988 26.8803 63.8909 24.0347 64.7487 20.8333C65.4826 18.0944 65.6175 15.5866 65.1535 13.3101C64.6989 10.998 63.7115 8.73929 62.1914 6.53392C63.3068 5.96479 64.472 5.55572 65.6868 5.30673C66.9483 5.02217 68.3197 4.87988 69.8012 4.87988C73.6901 4.87988 77.1233 5.75136 80.1007 7.49432C83.0876 9.20171 85.4628 11.6027 87.2262 14.6974C89.0361 17.7564 90.1386 21.3135 90.5335 25.3686C90.9285 29.4236 90.5016 33.781 89.2531 38.4407C88.2618 42.1401 87.0712 45.2703 85.6813 47.8314C84.3379 50.3569 83.3993 52.6156 82.8656 54.6076C82.2461 56.9197 82.3801 58.7693 83.2676 60.1566C84.1647 61.5083 85.5762 62.1841 87.5021 62.1841C89.2058 62.1841 90.8912 61.5616 92.5581 60.3167C94.262 59.0717 95.6867 57.4177 96.8321 55.3546C98.3218 56.7063 99.4553 58.6271 100.233 61.117C101.056 63.5714 101.466 66.3281 101.461 69.3872C101.493 72.4462 101.09 75.5409 100.251 78.6711C98.8405 83.9355 96.3305 88.8799 92.7211 93.504C89.1583 98.0926 84.831 102.148 79.7392 105.669C74.6475 109.191 69.1126 111.947 63.1344 113.939C57.1932 115.931 51.1486 116.927 45.0004 116.927Z" fill="url(#paint0_linear_891_15)"/>
<path d="M229.853 116.064C223.301 116.064 218.361 114.4 215.033 111.072C211.705 107.64 210.041 102.7 210.041 96.252C210.041 92.612 210.457 88.972 211.289 85.332L229.385 0H253.097L234.845 85.8C234.637 87.256 234.533 88.244 234.533 88.764C234.533 90.74 235.001 92.3 235.937 93.444C236.977 94.588 238.433 95.16 240.305 95.16C242.177 95.16 243.789 94.744 245.141 93.912L240.929 113.724C237.809 115.284 234.117 116.064 229.853 116.064Z" fill="url(#paint1_linear_891_15)"/>
<path fill-rule="evenodd" clip-rule="evenodd" d="M108.496 113.88L131.272 6.23999H171.988C181.868 6.23999 189.46 8.424 194.764 12.792C200.172 17.16 202.876 23.244 202.876 31.044C202.876 37.7 201.004 43.316 197.26 47.892C193.516 52.468 188.42 55.692 181.972 57.564C192.684 60.996 198.04 68.432 198.04 79.872C198.04 90.584 194.348 98.956 186.964 104.988C179.684 110.916 169.284 113.88 155.764 113.88H108.496ZM162.94 48.516C173.132 48.516 178.228 44.408 178.228 36.192C178.228 30.264 174.276 27.3 166.372 27.3H152.02L147.496 48.516H162.94ZM142.479 97.7677C144.134 98.5408 146.068 98.9273 148.281 98.9273C150.369 98.9273 152.421 98.5891 154.439 97.9127C156.469 97.2363 158.348 96.3002 160.077 95.1044C161.806 93.9086 163.275 92.5317 164.485 90.9736C165.711 89.4034 166.563 87.7244 167.042 85.9368C167.327 84.8739 167.464 83.8231 167.453 82.7843C167.455 81.7456 167.316 80.8095 167.036 79.9761C166.772 79.1306 166.387 78.4783 165.881 78.0193C165.492 78.7199 165.009 79.2815 164.43 79.7043C163.864 80.127 163.292 80.3384 162.713 80.3384C162.059 80.3384 161.58 80.1089 161.275 79.6499C160.974 79.1789 160.928 78.5508 161.139 77.7657C161.32 77.0893 161.639 76.3223 162.095 75.4647C162.567 74.5951 162.971 73.5322 163.308 72.276C163.732 70.6937 163.877 69.2141 163.742 67.8371C163.608 66.4602 163.234 65.2523 162.619 64.2136C162.021 63.1627 161.214 62.3474 160.2 61.7677C159.189 61.1758 158.023 60.8799 156.702 60.8799C156.199 60.8799 155.734 60.9282 155.305 61.0248C154.893 61.1094 154.497 61.2483 154.118 61.4415C154.635 62.1904 154.97 62.9574 155.124 63.7425C155.282 64.5155 155.236 65.3671 154.987 66.2971C154.696 67.3842 154.223 68.3505 153.569 69.196C152.93 70.0294 152.204 70.8145 151.391 71.5513C150.577 72.2881 149.754 73.0369 148.921 73.7979C148.104 74.5468 147.361 75.3741 146.69 76.28C146.032 77.1859 145.543 78.2367 145.223 79.4325C144.959 79.0581 144.805 78.5266 144.764 77.8382C144.734 77.1497 144.833 76.3827 145.059 75.5372C145.205 74.9937 145.452 74.3293 145.801 73.5442C146.162 72.7591 146.443 72.1794 146.644 71.8049C145.276 72.3122 143.949 73.1577 142.663 74.3414C141.394 75.513 140.265 76.9081 139.278 78.5266C138.307 80.1331 137.575 81.8543 137.083 83.6902C136.507 85.8402 136.347 87.8452 136.603 89.7053C136.863 91.5533 137.494 93.1658 138.495 94.5428C139.497 95.9197 140.825 96.9947 142.479 97.7677Z" fill="url(#paint2_linear_891_15)"/>
<path fill-rule="evenodd" clip-rule="evenodd" d="M275.947 116.064C270.227 116.064 265.495 114.244 261.751 110.604C258.111 106.86 256.291 102.024 256.291 96.096C256.291 86.528 260.451 79.664 268.771 75.504C277.195 71.24 289.103 69.056 304.495 68.952C304.703 67.704 304.807 66.82 304.807 66.3C304.807 63.596 303.871 61.464 301.999 59.904C300.231 58.344 297.735 57.564 294.511 57.564C287.959 57.564 281.615 60.06 275.479 65.052L265.963 49.764C274.803 42.172 285.931 38.376 299.347 38.376C309.019 38.376 316.403 40.404 321.499 44.46C326.595 48.516 329.143 54.184 329.143 61.464C329.143 63.856 328.831 66.456 328.207 69.264L318.691 113.88H296.539V106.548C292.483 112.892 285.619 116.064 275.947 116.064ZM286.555 97.968C288.947 97.968 291.131 97.448 293.107 96.408C295.187 95.368 297.371 93.912 299.659 92.04L301.531 83.304C294.147 83.304 288.687 84.136 285.151 85.8C281.615 87.36 279.847 89.492 279.847 92.196C279.847 94.068 280.419 95.524 281.563 96.564C282.811 97.5 284.475 97.968 286.555 97.968Z" fill="url(#paint3_linear_891_15)"/>
<path d="M395.791 113.88H333.859L338.071 93.912L375.199 60.684H347.119L351.331 40.56H409.519L405.463 59.592L368.335 93.756H400.003L395.791 113.88Z" fill="url(#paint4_linear_891_15)"/>
<path fill-rule="evenodd" clip-rule="evenodd" d="M447.885 116.064C437.589 116.064 429.269 113.1 422.925 107.172C416.581 101.244 413.409 92.872 413.409 82.056C413.409 74.152 415.125 66.924 418.557 60.372C422.093 53.716 427.241 48.412 434.001 44.46C440.761 40.404 448.769 38.376 458.025 38.376C467.489 38.376 474.873 41.028 480.177 46.332C485.585 51.532 488.289 58.604 488.289 67.548C488.289 72.54 487.353 78 485.481 83.928H436.497C436.913 88.296 438.369 91.624 440.865 93.912C443.361 96.2 446.793 97.344 451.161 97.344C454.385 97.344 457.401 96.772 460.209 95.628C463.121 94.38 466.033 92.56 468.945 90.168L478.617 106.236C471.337 112.788 461.093 116.064 447.885 116.064ZM468.165 68.016C468.165 64.272 467.125 61.412 465.045 59.436C462.965 57.356 459.897 56.316 455.841 56.316C451.993 56.316 448.665 57.408 445.857 59.592C443.049 61.672 440.813 64.48 439.149 68.016H468.165Z" fill="url(#paint5_linear_891_15)"/>
<defs>
<linearGradient id="paint0_linear_891_15" x1="75.0234" y1="4.87988" x2="75.0234" y2="116.927" gradientUnits="userSpaceOnUse">
<stop stop-color="#FF6846"/>
<stop offset="1" stop-color="#992110"/>
</linearGradient>
<linearGradient id="paint1_linear_891_15" x1="108.496" y1="58.032" x2="488.289" y2="58.032" gradientUnits="userSpaceOnUse">
<stop stop-color="#FFB9AA"/>
<stop offset="0.17" stop-color="white"/>
<stop offset="1" stop-color="white"/>
</linearGradient>
<linearGradient id="paint2_linear_891_15" x1="108.496" y1="58.032" x2="488.289" y2="58.032" gradientUnits="userSpaceOnUse">
<stop stop-color="#FFB9AA"/>
<stop offset="0.17" stop-color="white"/>
<stop offset="1" stop-color="white"/>
</linearGradient>
<linearGradient id="paint3_linear_891_15" x1="108.496" y1="58.032" x2="488.289" y2="58.032" gradientUnits="userSpaceOnUse">
<stop stop-color="#FFB9AA"/>
<stop offset="0.17" stop-color="white"/>
<stop offset="1" stop-color="white"/>
</linearGradient>
<linearGradient id="paint4_linear_891_15" x1="108.496" y1="58.032" x2="488.289" y2="58.032" gradientUnits="userSpaceOnUse">
<stop stop-color="#FFB9AA"/>
<stop offset="0.17" stop-color="white"/>
<stop offset="1" stop-color="white"/>
</linearGradient>
<linearGradient id="paint5_linear_891_15" x1="108.496" y1="58.032" x2="488.289" y2="58.032" gradientUnits="userSpaceOnUse">
<stop stop-color="#FFB9AA"/>
<stop offset="0.17" stop-color="white"/>
<stop offset="1" stop-color="white"/>
</linearGradient>
</defs>
</svg>
